<mxfile host="app.diagrams.net" modified="2022-03-17T00:41:25.263Z" agent="5.0 (Windows NT 10.0; Win64; x64) AppleWebKit/537.36 (KHTML, like Gecko) Chrome/99.0.4844.51 Safari/537.36" etag="9o2BxdtpRBtd4qFt2lWT" version="17.1.3" type="github">
  <diagram id="C5RBs43oDa-KdzZeNtuy" name="Page-1">
    <mxGraphModel dx="526" dy="482" grid="1" gridSize="10" guides="1" tooltips="1" connect="1" arrows="1" fold="1" page="1" pageScale="1" pageWidth="827" pageHeight="1169" math="0" shadow="0">
      <root>
        <mxCell id="WIyWlLk6GJQsqaUBKTNV-0" />
        <mxCell id="WIyWlLk6GJQsqaUBKTNV-1" parent="WIyWlLk6GJQsqaUBKTNV-0" />
        <mxCell id="2WFngpLrxI40MXyS1wlJ-0" value="INICIO" style="rounded=1;whiteSpace=wrap;html=1;" vertex="1" parent="WIyWlLk6GJQsqaUBKTNV-1">
          <mxGeometry x="160" y="40" width="120" height="60" as="geometry" />
        </mxCell>
        <mxCell id="2WFngpLrxI40MXyS1wlJ-1" value="a,b" style="shape=parallelogram;perimeter=parallelogramPerimeter;whiteSpace=wrap;html=1;fixedSize=1;" vertex="1" parent="WIyWlLk6GJQsqaUBKTNV-1">
          <mxGeometry x="160" y="150" width="120" height="60" as="geometry" />
        </mxCell>
        <mxCell id="2WFngpLrxI40MXyS1wlJ-2" value="a&amp;gt;b" style="rhombus;whiteSpace=wrap;html=1;" vertex="1" parent="WIyWlLk6GJQsqaUBKTNV-1">
          <mxGeometry x="180" y="260" width="80" height="80" as="geometry" />
        </mxCell>
        <mxCell id="2WFngpLrxI40MXyS1wlJ-3" value="a" style="shape=document;whiteSpace=wrap;html=1;boundedLbl=1;" vertex="1" parent="WIyWlLk6GJQsqaUBKTNV-1">
          <mxGeometry x="270" y="360" width="100" height="60" as="geometry" />
        </mxCell>
        <mxCell id="2WFngpLrxI40MXyS1wlJ-4" value="b" style="shape=document;whiteSpace=wrap;html=1;boundedLbl=1;" vertex="1" parent="WIyWlLk6GJQsqaUBKTNV-1">
          <mxGeometry x="60" y="360" width="100" height="60" as="geometry" />
        </mxCell>
        <mxCell id="2WFngpLrxI40MXyS1wlJ-5" value="" style="endArrow=classic;html=1;rounded=0;exitX=0.5;exitY=1;exitDx=0;exitDy=0;" edge="1" parent="WIyWlLk6GJQsqaUBKTNV-1" source="2WFngpLrxI40MXyS1wlJ-1" target="2WFngpLrxI40MXyS1wlJ-2">
          <mxGeometry width="50" height="50" relative="1" as="geometry">
            <mxPoint x="250" y="380" as="sourcePoint" />
            <mxPoint x="300" y="330" as="targetPoint" />
          </mxGeometry>
        </mxCell>
        <mxCell id="2WFngpLrxI40MXyS1wlJ-6" value="" style="endArrow=classic;html=1;rounded=0;exitX=0.5;exitY=1;exitDx=0;exitDy=0;entryX=0.5;entryY=0;entryDx=0;entryDy=0;" edge="1" parent="WIyWlLk6GJQsqaUBKTNV-1" source="2WFngpLrxI40MXyS1wlJ-0" target="2WFngpLrxI40MXyS1wlJ-1">
          <mxGeometry width="50" height="50" relative="1" as="geometry">
            <mxPoint x="250" y="80" as="sourcePoint" />
            <mxPoint x="300" y="30" as="targetPoint" />
          </mxGeometry>
        </mxCell>
        <mxCell id="2WFngpLrxI40MXyS1wlJ-7" value="" style="endArrow=classic;html=1;rounded=0;exitX=1;exitY=0.5;exitDx=0;exitDy=0;entryX=0.5;entryY=0;entryDx=0;entryDy=0;" edge="1" parent="WIyWlLk6GJQsqaUBKTNV-1" source="2WFngpLrxI40MXyS1wlJ-2" target="2WFngpLrxI40MXyS1wlJ-3">
          <mxGeometry width="50" height="50" relative="1" as="geometry">
            <mxPoint x="250" y="380" as="sourcePoint" />
            <mxPoint x="300" y="330" as="targetPoint" />
            <Array as="points">
              <mxPoint x="320" y="300" />
            </Array>
          </mxGeometry>
        </mxCell>
        <mxCell id="2WFngpLrxI40MXyS1wlJ-8" value="" style="endArrow=classic;html=1;rounded=0;exitX=0;exitY=0.5;exitDx=0;exitDy=0;entryX=0.6;entryY=0;entryDx=0;entryDy=0;entryPerimeter=0;" edge="1" parent="WIyWlLk6GJQsqaUBKTNV-1" source="2WFngpLrxI40MXyS1wlJ-2" target="2WFngpLrxI40MXyS1wlJ-4">
          <mxGeometry width="50" height="50" relative="1" as="geometry">
            <mxPoint x="250" y="380" as="sourcePoint" />
            <mxPoint x="110" y="350" as="targetPoint" />
            <Array as="points">
              <mxPoint x="120" y="300" />
            </Array>
          </mxGeometry>
        </mxCell>
        <mxCell id="2WFngpLrxI40MXyS1wlJ-9" value="FIM" style="rounded=1;whiteSpace=wrap;html=1;" vertex="1" parent="WIyWlLk6GJQsqaUBKTNV-1">
          <mxGeometry x="150" y="510" width="120" height="60" as="geometry" />
        </mxCell>
        <mxCell id="2WFngpLrxI40MXyS1wlJ-10" value="" style="ellipse;whiteSpace=wrap;html=1;aspect=fixed;" vertex="1" parent="WIyWlLk6GJQsqaUBKTNV-1">
          <mxGeometry x="195" y="440" width="30" height="30" as="geometry" />
        </mxCell>
        <mxCell id="2WFngpLrxI40MXyS1wlJ-11" value="" style="endArrow=classic;html=1;rounded=0;exitX=0.5;exitY=0.95;exitDx=0;exitDy=0;exitPerimeter=0;" edge="1" parent="WIyWlLk6GJQsqaUBKTNV-1" source="2WFngpLrxI40MXyS1wlJ-3">
          <mxGeometry width="50" height="50" relative="1" as="geometry">
            <mxPoint x="320" y="430" as="sourcePoint" />
            <mxPoint x="230" y="450" as="targetPoint" />
            <Array as="points">
              <mxPoint x="320" y="450" />
            </Array>
          </mxGeometry>
        </mxCell>
        <mxCell id="2WFngpLrxI40MXyS1wlJ-12" value="" style="endArrow=classic;html=1;rounded=0;exitX=0.4;exitY=1;exitDx=0;exitDy=0;exitPerimeter=0;" edge="1" parent="WIyWlLk6GJQsqaUBKTNV-1" source="2WFngpLrxI40MXyS1wlJ-4">
          <mxGeometry width="50" height="50" relative="1" as="geometry">
            <mxPoint x="250" y="480" as="sourcePoint" />
            <mxPoint x="190" y="450" as="targetPoint" />
            <Array as="points">
              <mxPoint x="100" y="450" />
            </Array>
          </mxGeometry>
        </mxCell>
        <mxCell id="2WFngpLrxI40MXyS1wlJ-13" value="" style="endArrow=classic;html=1;rounded=0;exitX=0.5;exitY=1;exitDx=0;exitDy=0;entryX=0.5;entryY=0;entryDx=0;entryDy=0;" edge="1" parent="WIyWlLk6GJQsqaUBKTNV-1" source="2WFngpLrxI40MXyS1wlJ-10" target="2WFngpLrxI40MXyS1wlJ-9">
          <mxGeometry width="50" height="50" relative="1" as="geometry">
            <mxPoint x="250" y="480" as="sourcePoint" />
            <mxPoint x="300" y="430" as="targetPoint" />
          </mxGeometry>
        </mxCell>
        <mxCell id="2WFngpLrxI40MXyS1wlJ-14" value="VERDEIRO" style="text;html=1;strokeColor=none;fillColor=none;align=center;verticalAlign=middle;whiteSpace=wrap;rounded=0;" vertex="1" parent="WIyWlLk6GJQsqaUBKTNV-1">
          <mxGeometry x="260" y="270" width="70" height="20" as="geometry" />
        </mxCell>
        <mxCell id="2WFngpLrxI40MXyS1wlJ-15" value="FALSO" style="text;html=1;strokeColor=none;fillColor=none;align=center;verticalAlign=middle;whiteSpace=wrap;rounded=0;" vertex="1" parent="WIyWlLk6GJQsqaUBKTNV-1">
          <mxGeometry x="80" y="270" width="70" height="20" as="geometry" />
        </mxCell>
      </root>
    </mxGraphModel>
  </diagram>
</mxfile>
